<svg width="358" height="265" viewBox="0 0 358 265" fill="none" xmlns="http://www.w3.org/2000/svg">
<path d="M345.476 238.519C344.402 229.879 339.047 221.367 330.808 218.556C334.057 227.448 334.057 237.203 330.806 246.095C329.54 249.519 327.775 253.196 328.966 256.648C329.707 258.796 331.52 260.439 333.546 261.466C335.572 262.493 337.821 262.983 340.042 263.463L340.479 263.824C344.004 255.864 346.55 247.158 345.476 238.519Z" fill="#F0F0F0"/>
<path d="M330.727 218.719C335.525 224.095 338.507 230.847 339.25 238.014C339.437 239.554 339.38 241.114 339.082 242.637C338.743 244.111 338.016 245.467 336.976 246.564C336.026 247.607 334.935 248.564 334.255 249.82C333.917 250.468 333.72 251.18 333.676 251.909C333.633 252.638 333.744 253.369 334.002 254.052C334.602 255.772 335.784 257.174 336.987 258.505C338.323 259.982 339.734 261.496 340.302 263.455C340.371 263.692 340.735 263.572 340.667 263.335C339.679 259.927 336.37 257.991 334.793 254.921C334.056 253.489 333.747 251.826 334.438 250.314C335.041 248.992 336.166 248.004 337.136 246.957C338.167 245.901 338.923 244.608 339.339 243.193C339.714 241.691 339.83 240.135 339.684 238.594C339.409 235.118 338.589 231.707 337.254 228.486C335.752 224.801 333.63 221.401 330.98 218.431C330.816 218.248 330.564 218.537 330.727 218.719H330.727Z" fill="white"/>
<path d="M339.146 235.692C340.332 235.404 341.377 234.704 342.094 233.717C342.811 232.73 343.154 231.521 343.062 230.304C343.042 230.058 342.659 230.077 342.678 230.323C342.766 231.456 342.447 232.583 341.777 233.5C341.107 234.418 340.132 235.066 339.026 235.328C338.786 235.385 338.907 235.749 339.146 235.692V235.692Z" fill="white"/>
<path d="M337.526 246.099C335.385 244.82 333.804 242.782 333.099 240.389C333.029 240.152 332.665 240.273 332.735 240.51C333.473 242.998 335.122 245.116 337.354 246.442C337.566 246.568 337.738 246.225 337.526 246.099Z" fill="white"/>
<path d="M335.396 225.165C334.96 225.372 334.48 225.467 333.998 225.443C333.517 225.418 333.049 225.275 332.637 225.025C332.426 224.896 332.254 225.239 332.464 225.367C332.921 225.641 333.438 225.799 333.97 225.828C334.502 225.856 335.033 225.753 335.516 225.529C335.563 225.512 335.602 225.477 335.625 225.432C335.648 225.387 335.652 225.335 335.638 225.287C335.622 225.238 335.587 225.199 335.542 225.176C335.497 225.153 335.444 225.149 335.396 225.165L335.396 225.165Z" fill="white"/>
<path d="M305.694 233.986C305.823 234.071 305.953 234.155 306.083 234.242C307.818 235.383 309.457 236.663 310.985 238.07C311.105 238.177 311.225 238.287 311.342 238.397C314.986 241.825 317.963 245.9 320.121 250.415C320.977 252.212 321.696 254.072 322.271 255.978C323.064 258.611 323.715 261.528 325.286 263.682C325.447 263.908 325.622 264.125 325.81 264.33H340.004C340.036 264.313 340.069 264.3 340.101 264.284L340.668 264.31C340.645 264.21 340.619 264.106 340.597 264.006C340.584 263.947 340.567 263.889 340.554 263.831C340.545 263.792 340.535 263.753 340.529 263.718C340.525 263.705 340.522 263.692 340.519 263.682C340.512 263.646 340.503 263.614 340.496 263.582C340.354 263.002 340.207 262.422 340.056 261.843C340.056 261.839 340.056 261.839 340.053 261.836C338.943 257.408 337.313 253.127 335.195 249.084C335.13 248.964 335.066 248.841 334.994 248.721C334.014 246.931 332.888 245.224 331.63 243.617C330.938 242.74 330.202 241.898 329.424 241.095C327.412 239.023 325.087 237.281 322.533 235.933C317.443 233.245 311.549 232.215 306.108 233.857C305.969 233.899 305.833 233.941 305.694 233.986Z" fill="#F0F0F0"/>
<path d="M305.726 234.167C312.794 235.57 319.24 239.165 324.148 244.441C325.225 245.558 326.119 246.838 326.797 248.233C327.414 249.614 327.65 251.135 327.48 252.637C327.35 254.041 327.055 255.463 327.268 256.874C327.388 257.595 327.659 258.282 328.064 258.891C328.468 259.5 328.996 260.016 329.614 260.406C331.129 261.418 332.916 261.826 334.678 262.164C336.635 262.539 338.673 262.898 340.306 264.12C340.504 264.268 340.722 263.953 340.524 263.805C337.683 261.679 333.876 262.125 330.769 260.624C329.318 259.924 328.071 258.782 327.711 257.159C327.397 255.74 327.701 254.274 327.845 252.854C328.032 251.39 327.857 249.903 327.337 248.523C326.732 247.097 325.889 245.785 324.844 244.643C322.531 242.033 319.823 239.803 316.818 238.035C313.4 235.997 309.658 234.56 305.755 233.784C305.514 233.736 305.486 234.119 305.726 234.167Z" fill="white"/>
<path d="M322.667 242.649C323.441 241.706 323.853 240.518 323.832 239.298C323.81 238.078 323.356 236.906 322.549 235.99C322.386 235.805 322.091 236.051 322.255 236.236C323.007 237.087 323.431 238.18 323.448 239.316C323.466 240.452 323.077 241.557 322.352 242.431C322.194 242.621 322.511 242.839 322.667 242.649Z" fill="white"/>
<path d="M327.64 251.934C325.16 252.202 322.671 251.526 320.667 250.04C320.469 249.893 320.251 250.209 320.449 250.356C322.536 251.898 325.129 252.596 327.708 252.311C327.954 252.284 327.884 251.907 327.64 251.934Z" fill="white"/>
<path d="M313.335 236.502C313.111 236.929 312.786 237.295 312.386 237.565C311.987 237.835 311.527 238.003 311.047 238.051C310.801 238.075 310.871 238.453 311.116 238.429C311.646 238.372 312.154 238.187 312.595 237.89C313.037 237.592 313.399 237.19 313.65 236.72C313.677 236.678 313.688 236.627 313.679 236.577C313.67 236.528 313.642 236.483 313.602 236.453C313.56 236.425 313.508 236.414 313.458 236.423C313.408 236.432 313.364 236.46 313.335 236.502Z" fill="white"/>
<path d="M53.1626 75.9432C40.4136 82.6675 30.3684 95.9448 30.841 110.35C42.7076 100.11 57.814 94.397 73.4874 94.2222C79.5322 94.1768 86.2603 94.7556 90.9075 90.8896C93.7992 88.4842 95.2818 84.7148 95.6859 80.9753C96.09 77.2357 95.531 73.4665 94.9733 69.7466L95.2771 68.8581C80.8855 68.0619 65.9115 69.2189 53.1626 75.9432Z" fill="#F0F0F0"/>
<path d="M31.1418 110.381C36.6565 99.8021 45.3644 91.2293 56.0287 85.8808C58.304 84.6886 60.753 83.8626 63.2856 83.433C65.7662 83.0943 68.2922 83.426 70.6012 84.3937C72.7722 85.2527 74.8935 86.3828 77.2356 86.6991C78.4368 86.8433 79.655 86.7318 80.8102 86.3721C81.9653 86.0124 83.0314 85.4126 83.9385 84.612C86.2506 82.676 87.7291 80.0246 89.0849 77.3815C90.5903 74.4469 92.1074 71.3749 94.8081 69.348C95.1353 69.1024 94.7351 68.609 94.4083 68.8542C89.7097 72.3808 88.6498 78.6377 84.8207 82.879C83.0339 84.858 80.6399 86.3106 77.8943 86.1274C75.4934 85.9673 73.3049 84.8038 71.1142 83.915C68.8755 82.938 66.4316 82.524 63.9961 82.7092C61.4498 83.0084 58.973 83.7388 56.6718 84.8689C51.4504 87.3307 46.6485 90.5982 42.4421 94.5516C37.6164 99.037 33.5934 104.315 30.5474 110.157C30.359 110.519 30.9546 110.741 31.1418 110.381H31.1418Z" fill="white"/>
<path d="M52.4935 87.4009C51.3532 85.7334 49.6574 84.5256 47.7088 83.9932C45.7602 83.4607 43.6858 83.6382 41.8561 84.4939C41.4864 84.6684 41.7401 85.251 42.1102 85.0763C43.8127 84.2763 45.745 84.1111 47.5585 84.6107C49.372 85.1102 50.9471 86.2416 51.9997 87.8006C52.2289 88.1391 52.7213 87.7374 52.4935 87.4009H52.4935Z" fill="white"/>
<path d="M69.5578 83.8131C68.8322 87.8782 66.6011 91.5204 63.3093 94.0135C62.983 94.2603 63.3831 94.7537 63.709 94.5073C67.1296 91.9065 69.4438 88.1115 70.1896 83.8796C70.2604 83.4762 69.6282 83.4119 69.5578 83.8132V83.8131Z" fill="white"/>
<path d="M38.3878 99.3753C38.9634 99.9285 39.3926 100.616 39.6369 101.376C39.8811 102.136 39.9328 102.945 39.7872 103.73C39.7113 104.132 40.3435 104.196 40.4189 103.797C40.5758 102.929 40.5177 102.035 40.2497 101.195C39.9817 100.355 39.512 99.5926 38.8815 98.9756C38.827 98.9125 38.7505 98.8725 38.6675 98.8637C38.5845 98.855 38.5013 98.8782 38.4348 98.9286C38.3697 98.9818 38.3282 99.0586 38.3194 99.1423C38.3106 99.2259 38.3352 99.3097 38.3878 99.3753Z" fill="white"/>
<path d="M69.4473 140.202C69.5018 139.953 69.5564 139.703 69.6158 139.451C70.3663 136.095 71.3882 132.806 72.6713 129.617C72.7666 129.368 72.8669 129.118 72.9691 128.873C76.1424 121.221 80.7088 114.224 86.4362 108.239C88.7175 105.859 91.1765 103.657 93.7919 101.65C97.4041 98.8795 101.541 96.1625 103.956 92.4689C104.212 92.0864 104.444 91.6883 104.651 91.2771L96.3374 69.2976C96.2934 69.2571 96.2543 69.2145 96.2103 69.1738L95.9184 68.2811C95.7763 68.3751 95.6309 68.4757 95.4888 68.5698C95.4062 68.624 95.3254 68.6831 95.2427 68.7374C95.1882 68.775 95.1337 68.813 95.0823 68.8439C95.0642 68.8564 95.0461 68.8691 95.0328 68.8797C94.9815 68.9106 94.9371 68.9448 94.8907 68.9738C94.0766 69.5339 93.2649 70.1008 92.4558 70.6743C92.4508 70.6762 92.4508 70.6762 92.4476 70.683C86.2936 75.069 80.4517 80.0072 75.545 85.6751C75.3975 85.8457 75.2448 86.0179 75.101 86.1985C72.9035 88.7656 70.9195 91.508 69.1688 94.3984C68.2152 95.9841 67.3426 97.6171 66.5542 99.2911C64.5253 103.62 63.19 108.242 62.5973 112.986C61.4171 122.444 63.2747 132.173 69.004 139.637C69.1507 139.827 69.2956 140.014 69.4473 140.202Z" fill="#F0F0F0"/>
<path d="M69.7076 140.048C67.7412 128.28 69.5326 116.193 74.8273 105.502C75.9262 103.18 77.3843 101.046 79.1478 99.1779C80.9245 97.414 83.1411 96.158 85.5673 95.5405C87.8179 94.9192 90.1921 94.5444 92.2525 93.3869C93.2984 92.7787 94.204 91.9563 94.9097 90.9736C95.6155 89.9909 96.1056 88.8702 96.3478 87.6848C97.0283 84.7469 96.6125 81.7398 96.1037 78.8132C95.5388 75.5637 94.9006 72.1975 95.8365 68.9531C95.95 68.56 95.3334 68.407 95.2201 68.7995C93.5917 74.4442 96.5127 80.0781 96.0088 85.7699C95.7736 88.4258 94.7367 91.027 92.4342 92.5338C90.4208 93.8515 87.973 94.2401 85.6887 94.8494C83.313 95.4172 81.1124 96.558 79.2793 98.1722C77.4264 99.9441 75.8885 102.018 74.7316 104.306C72.0448 109.416 70.178 114.916 69.1996 120.605C68.0471 127.091 68.0126 133.728 69.0978 140.226C69.1651 140.628 69.7745 140.447 69.7076 140.048H69.7076Z" fill="white"/>
<path d="M72.9198 108.844C71.0054 108.199 68.9242 108.255 67.0478 109.003C65.1714 109.752 63.622 111.142 62.6762 112.927C62.4861 113.289 63.0394 113.601 63.2298 113.239C64.1074 111.575 65.5508 110.28 67.2996 109.587C69.0483 108.894 70.9872 108.849 72.7662 109.46C73.1529 109.592 73.3043 108.975 72.9198 108.844V108.844Z" fill="white"/>
<path d="M84.3846 95.7052C86.2527 99.3878 86.6641 103.639 85.5369 107.612C85.4248 108.005 86.0414 108.158 86.1533 107.765C87.3186 103.629 86.8815 99.2058 84.9291 95.3779C84.7428 95.0131 84.1993 95.3424 84.3847 95.7052H84.3846Z" fill="white"/>
<path d="M68.8667 126.897C69.6594 126.992 70.416 127.283 71.0686 127.743C71.7213 128.203 72.2495 128.817 72.6059 129.532C72.7875 129.899 73.3308 129.569 73.1503 129.204C72.7529 128.417 72.1688 127.739 71.4488 127.229C70.7289 126.719 69.8951 126.394 69.0202 126.281C68.9387 126.263 68.8535 126.277 68.782 126.32C68.7105 126.363 68.658 126.432 68.6352 126.512C68.6153 126.594 68.6285 126.68 68.6718 126.752C68.7151 126.824 68.7852 126.876 68.8667 126.897V126.897Z" fill="white"/>
<path d="M194.563 53.3174H193.33V19.546C193.33 16.9792 192.824 14.4375 191.842 12.0661C190.86 9.69465 189.42 7.53991 187.605 5.7249C185.79 3.90988 183.635 2.47013 181.264 1.48786C178.892 0.505576 176.351 2.4939e-06 173.784 0H102.235C97.0506 -1.00732e-05 92.079 2.05928 88.4135 5.72485C84.7479 9.39043 82.6885 14.362 82.6885 19.5459V204.819C82.6885 210.003 84.7478 214.974 88.4134 218.64C92.079 222.305 97.0506 224.365 102.235 224.365H173.784C178.968 224.365 183.939 222.305 187.605 218.64C191.271 214.974 193.33 210.003 193.33 204.819V77.3565H194.563V53.3174Z" fill="#3F3D56"/>
<path d="M174.573 5.08521H165.233C165.662 6.1382 165.826 7.28067 165.71 8.41195C165.594 9.54324 165.202 10.6286 164.568 11.5725C163.933 12.5164 163.076 13.2898 162.073 13.8246C161.069 14.3593 159.949 14.6391 158.812 14.6392H117.823C116.685 14.6391 115.566 14.3593 114.562 13.8246C113.558 13.2898 112.702 12.5164 112.067 11.5725C111.433 10.6286 111.04 9.54324 110.924 8.41195C110.808 7.28066 110.972 6.13819 111.402 5.08519H102.679C98.8073 5.08519 95.0946 6.62305 92.3572 9.36046C89.6198 12.0979 88.0819 15.8106 88.0819 19.6819V204.683C88.0819 208.554 89.6198 212.267 92.3572 215.004C95.0946 217.742 98.8073 219.279 102.679 219.279H174.573C178.444 219.279 182.157 217.742 184.894 215.004C187.631 212.267 189.169 208.554 189.169 204.683V19.6819C189.169 17.765 188.792 15.8669 188.058 14.096C187.325 12.325 186.249 10.7159 184.894 9.36047C183.539 8.00504 181.929 6.92986 180.158 6.1963C178.388 5.46275 176.489 5.0852 174.573 5.08521Z" fill="white"/>
<path d="M138.647 113.627C130.128 113.627 121.8 111.101 114.717 106.368C107.634 101.635 102.113 94.9081 98.8531 87.0377C95.5931 79.1673 94.7402 70.5069 96.4021 62.1517C98.0641 53.7965 102.166 46.1218 108.19 40.098C114.214 34.0743 121.889 29.972 130.244 28.3101C138.599 26.6482 147.259 27.5011 155.13 30.7612C163 34.0212 169.727 39.5419 174.46 46.6251C179.193 53.7083 181.719 62.0359 181.719 70.5548C181.706 81.9743 177.164 92.9224 169.089 100.997C161.014 109.072 150.066 113.614 138.647 113.627ZM138.647 28.2421C130.278 28.2421 122.097 30.7237 115.139 35.3731C108.181 40.0224 102.758 46.6308 99.555 54.3624C96.3524 62.094 95.5145 70.6016 97.1471 78.8094C98.7797 87.0173 102.81 94.5567 108.727 100.474C114.645 106.392 122.184 110.422 130.392 112.054C138.6 113.687 147.107 112.849 154.839 109.646C162.571 106.444 169.179 101.021 173.828 94.0624C178.478 87.1041 180.959 78.9234 180.959 70.5548C180.947 59.3367 176.485 48.5817 168.552 40.6492C160.62 32.7168 149.865 28.2548 138.647 28.2421Z" fill="#3F3D56"/>
<path d="M133.682 74.2758C132.196 69.8699 126.89 67.1739 122.455 68.5709C118.62 69.779 116.011 73.8683 116.219 77.838C114.937 72.9895 110.002 69.1977 104.941 69.553C99.2538 69.9523 94.4518 75.5149 94.8869 81.1997C94.6866 79.7084 93.9835 78.3299 92.8939 77.2921C91.8043 76.2543 90.3933 75.6192 88.8939 75.4917C87.3946 75.3642 85.8966 75.7519 84.6473 76.5908C83.3981 77.4297 82.4724 78.6696 82.0231 80.1057L82.0248 80.0004C81.1199 79.4919 79.8944 80.383 79.8401 81.4198C79.7859 82.4565 80.5998 83.38 81.5541 83.7888C82.5082 84.1977 83.5799 84.2028 84.618 84.2015C97.5727 84.1849 110.528 84.1682 123.483 84.1515C126.492 84.1476 129.809 84.0295 132.021 81.9892C134.066 80.1034 134.571 76.9113 133.682 74.2758Z" fill="#E4E4E4"/>
<path d="M164.653 94.3909C164.224 93.2557 163.387 92.3217 162.305 91.772C161.223 91.2223 159.975 91.0967 158.805 91.4197C156.808 92.0489 155.449 94.1787 155.558 96.2461C154.89 93.721 152.32 91.7461 149.684 91.9312C146.722 92.1391 144.221 95.0362 144.448 97.9969C144.343 97.2202 143.977 96.5023 143.41 95.9618C142.842 95.4213 142.107 95.0906 141.326 95.0241C140.545 94.9577 139.765 95.1597 139.115 95.5966C138.464 96.0335 137.982 96.6792 137.748 97.4272L137.749 97.3723C137.278 97.1075 136.639 97.5716 136.611 98.1115C136.621 98.3825 136.711 98.6445 136.87 98.8642C137.029 99.0839 137.249 99.2514 137.504 99.3454C138.016 99.5241 138.558 99.5972 139.099 99.5603C145.846 99.5516 152.593 99.5429 159.341 99.5342C160.908 99.5322 162.635 99.4707 163.788 98.4081C164.852 97.426 165.116 95.7635 164.653 94.3909Z" fill="#E4E4E4"/>
<path d="M147.185 60.668C155.375 60.668 162.015 54.0284 162.015 45.8381C162.015 37.6477 155.375 31.0081 147.185 31.0081C138.995 31.0081 132.355 37.6477 132.355 45.8381C132.355 54.0284 138.995 60.668 147.185 60.668Z" fill="#FF6582"/>
<path d="M188.059 50.9074C186.572 46.5015 181.267 43.8055 176.832 45.2026C172.997 46.4107 170.388 50.5 170.596 54.4696C169.314 49.6211 164.379 45.8293 159.318 46.1846C153.631 46.5839 148.829 52.1465 149.264 57.8313C149.063 56.34 148.36 54.9616 147.271 53.9238C146.181 52.886 144.77 52.2509 143.271 52.1233C141.771 51.9958 140.273 52.3835 139.024 53.2224C137.775 54.0613 136.849 55.3012 136.4 56.7373L136.402 56.632C135.497 56.1235 134.271 57.0146 134.217 58.0514C134.163 59.0881 134.977 60.0116 135.931 60.4205C136.885 60.8293 137.957 60.8345 138.995 60.8332C151.949 60.8165 164.904 60.7998 177.859 60.7831C180.869 60.7792 184.186 60.6612 186.398 58.6209C188.443 56.7351 188.948 53.543 188.059 50.9074Z" fill="#E4E4E4"/>
<path d="M159.093 74.1852L161.95 71.9005C159.731 71.6557 158.819 72.866 158.446 73.8239C156.712 73.104 154.825 74.0475 154.825 74.0475L160.54 76.1223C160.252 75.3522 159.75 74.6802 159.093 74.1852Z" fill="#3F3D56"/>
<path d="M122.243 96.6548L125.1 94.3702C122.88 94.1254 121.969 95.3356 121.595 96.2935C119.862 95.5737 117.975 96.5171 117.975 96.5171L123.69 98.592C123.402 97.8218 122.9 97.1499 122.243 96.6548Z" fill="#3F3D56"/>
<path d="M115.952 58.0071L118.808 55.7224C116.589 55.4776 115.677 56.6878 115.304 57.6458C113.57 56.9259 111.683 57.8693 111.683 57.8693L117.399 59.9442C117.11 59.1741 116.608 58.5021 115.952 58.0071Z" fill="#3F3D56"/>
<path d="M136.4 190.992C150.299 190.992 161.566 189.785 161.566 188.296C161.566 186.807 150.299 185.599 136.4 185.599C122.501 185.599 111.234 186.807 111.234 188.296C111.234 189.785 122.501 190.992 136.4 190.992Z" fill="#F0F0F0"/>
<path d="M12.824 144.88H130.869C133.896 144.88 136.826 145.95 139.14 147.901C141.454 149.852 143.004 152.558 143.516 155.542C144.027 158.525 143.468 161.593 141.937 164.204C140.405 166.814 138 168.8 135.146 169.809V178.668L127.02 170.542H12.824C9.42224 170.54 6.16042 169.187 3.75565 166.781C1.35088 164.375 0 161.113 0 157.711C0 154.309 1.35088 151.046 3.75565 148.64C6.16042 146.234 9.42224 144.882 12.824 144.88Z" fill="#4B77BE"/>
<path d="M18.3841 154.717H122.315C122.542 154.717 122.76 154.627 122.92 154.466C123.081 154.306 123.171 154.088 123.171 153.862C123.171 153.635 123.081 153.417 122.92 153.257C122.76 153.096 122.542 153.006 122.315 153.006H18.3841C18.1573 153.006 17.9397 153.096 17.7793 153.257C17.6189 153.417 17.5287 153.635 17.5287 153.862C17.5287 154.088 17.6189 154.306 17.7793 154.466C17.9397 154.627 18.1573 154.717 18.3841 154.717Z" fill="white"/>
<path d="M18.3841 161.132H122.315C122.542 161.132 122.76 161.042 122.92 160.882C123.081 160.722 123.171 160.504 123.171 160.277C123.171 160.05 123.081 159.833 122.92 159.672C122.76 159.512 122.542 159.422 122.315 159.422H18.3841C18.1573 159.422 17.9397 159.512 17.7793 159.672C17.6189 159.833 17.5287 160.05 17.5287 160.277C17.5287 160.504 17.6189 160.722 17.7793 160.882C17.9397 161.042 18.1573 161.132 18.3841 161.132Z" fill="white"/>
<path d="M274.858 188.906C275.426 188.584 275.916 188.14 276.294 187.608C276.672 187.075 276.928 186.466 277.045 185.824C277.162 185.182 277.137 184.521 276.971 183.89C276.806 183.258 276.503 182.671 276.086 182.169L281.279 141.822L271.575 142.23L269.522 181.761C268.725 182.518 268.233 183.541 268.14 184.636C268.047 185.732 268.358 186.823 269.016 187.704C269.674 188.585 270.632 189.194 271.709 189.415C272.786 189.637 273.906 189.456 274.858 188.906Z" fill="#FFB6B6"/>
<path d="M320.02 141.817L321.267 162.446L312.848 184.681L308.825 178.734L312.659 157.103L311.596 143.264L320.02 141.817Z" fill="#FFB6B6"/>
<path d="M307.966 205.421L308.999 258.451L304.466 259.152L294.668 204.877L307.966 205.421Z" fill="#FFB6B6"/>
<path d="M278.567 207.984L285.662 260.546H290.249L291.625 205.41L278.567 207.984Z" fill="#FFB6B6"/>
<path d="M291.917 114.85C297.127 114.85 301.35 110.627 301.35 105.417C301.35 100.207 297.127 95.9841 291.917 95.9841C286.708 95.9841 282.484 100.207 282.484 105.417C282.484 110.627 286.708 114.85 291.917 114.85Z" fill="#FFB6B6"/>
<path d="M299.854 109.414C300.175 110.12 300.68 109.679 301.267 109.197C302.364 108.297 303.003 106.892 303.37 105.553C304.003 103.326 304.061 100.974 303.537 98.719C303.003 96.4591 301.757 94.4303 299.984 92.9305C299.579 92.5911 299.138 92.2968 298.669 92.0531C297.088 91.2502 295.221 91.2154 293.467 91.476C291.165 91.8302 288.952 92.6239 286.95 93.8139C286.041 94.2942 285.249 94.9686 284.63 95.7892C284.325 96.2026 284.127 96.685 284.053 97.1935C283.98 97.7019 284.033 98.2207 284.209 98.7034C284.239 98.7876 284.29 98.8623 284.359 98.9196C284.485 98.9859 284.632 99.0022 284.77 98.9652C286.195 98.7699 287.64 98.7745 289.063 98.9789C289.26 98.9804 289.453 99.0274 289.629 99.1162C289.805 99.2049 289.957 99.3331 290.075 99.4906C290.155 99.7697 290.218 100.054 290.263 100.341C290.585 101.203 292.01 100.991 292.546 101.74C292.883 102.21 292.734 102.878 292.969 103.406C293.346 104.254 294.496 104.389 295.412 104.243C296.328 104.097 297.318 103.808 298.141 104.237C298.933 104.651 299.278 105.59 299.478 106.461C299.671 107.307 299.513 108.665 299.854 109.414Z" fill="#2F2E41"/>
<path d="M309.118 175.843L313.077 185.098L309.118 197.551V210.44L293.959 210.531L293.624 194.68L291.585 210.531H276.15L273.293 178.76L277.391 171.242L309.118 175.843Z" fill="#2F2E41"/>
<path d="M288.887 117.938L287.772 120.004C287.772 120.004 278.153 121.878 273.293 127.172L279.816 140.492L273.775 179.068L309.394 176.693L310.658 146.993L316.018 126.22C316.018 126.22 306.726 119.847 302.717 120.517L301.314 117.938H288.887Z" fill="#4B77BE"/>
<path d="M282.448 128.56L273.293 127.172C273.293 127.172 270.786 141.873 270.807 145.23L281.857 146.993L282.448 128.56Z" fill="#4B77BE"/>
<path d="M311.642 127.158L316.018 126.22C316.018 126.22 317.705 131.576 320.49 144.189L309.118 148.158L311.642 127.158Z" fill="#4B77BE"/>
<path d="M291.139 263.996L274.666 263.995V263.787C274.666 262.087 275.341 260.456 276.544 259.253C277.746 258.051 279.377 257.375 281.077 257.375H281.078L291.139 257.376L291.139 263.996Z" fill="#2F2E41"/>
<path d="M310.993 261.476L294.714 263.996L294.682 263.79C294.422 262.11 294.84 260.395 295.844 259.022C296.848 257.65 298.356 256.733 300.037 256.473L300.037 256.473L309.98 254.933L310.993 261.476Z" fill="#2F2E41"/>
<path d="M357.62 264.709H212.912C212.812 264.709 212.715 264.669 212.644 264.598C212.573 264.527 212.533 264.43 212.533 264.33C212.533 264.229 212.573 264.132 212.644 264.061C212.715 263.99 212.812 263.95 212.912 263.95H357.62C357.721 263.95 357.817 263.99 357.889 264.061C357.96 264.132 358 264.229 358 264.33C358 264.43 357.96 264.527 357.889 264.598C357.817 264.669 357.721 264.709 357.62 264.709Z" fill="#CACACA"/>
</svg>
